<?xml version="1.0" standalone="no"?>
<!DOCTYPE svg PUBLIC "-//W3C//DTD SVG 20010904//EN"
 "http://www.w3.org/TR/2001/REC-SVG-20010904/DTD/svg10.dtd">
<svg version="1.0" xmlns="http://www.w3.org/2000/svg"
 width="580.000000pt" height="387.000000pt" viewBox="0 0 580.000000 387.000000"
 preserveAspectRatio="xMidYMid meet">

<g transform="translate(0.000000,387.000000) scale(0.100000,-0.100000)"
fill="#000000" stroke="none">
<path d="M2550 3618 c-134 -159 -176 -283 -87 -257 42 12 99 11 133 -1 40 -16
50 0 31 48 -21 53 -30 154 -18 222 5 30 8 56 6 58 -2 2 -31 -30 -65 -70z"/>
<path d="M3313 3677 c17 -45 18 -173 2 -227 -24 -81 -24 -96 0 -92 78 12 115
13 147 4 64 -17 69 17 20 115 -23 44 -127 178 -157 203 -17 14 -18 13 -12 -3z"/>
<path d="M2420 3248 c-154 -93 -256 -391 -243 -713 14 -367 165 -638 352 -637
267 3 437 575 305 1030 -84 288 -251 418 -414 320z"/>
<path d="M3320 3267 c-223 -101 -338 -576 -240 -987 24 -97 83 -227 131 -284
55 -65 113 -96 181 -96 96 0 170 52 238 169 66 113 120 341 120 504 0 320
-113 613 -263 686 -48 23 -126 27 -167 8z"/>
<path d="M1804 2788 c-97 -108 -173 -253 -147 -279 8 -8 22 -8 48 1 23 8 56
10 84 6 98 -15 96 -16 67 59 -17 44 -21 169 -7 228 5 20 8 37 6 37 -2 0 -25
-24 -51 -52z"/>
<path d="M4077 2730 c5 -80 2 -113 -12 -160 -10 -33 -15 -63 -12 -66 3 -4 28
-1 55 6 37 8 60 9 88 1 22 -6 47 -11 57 -11 46 0 -5 121 -103 244 -34 41 -65
78 -70 81 -4 3 -6 -40 -3 -95z"/>
<path d="M1672 2379 c-82 -41 -165 -163 -211 -314 -140 -454 30 -1048 300
-1048 204 0 362 326 353 726 -11 440 -222 744 -442 636z"/>
<path d="M4069 2380 c-74 -39 -144 -131 -191 -250 -105 -268 -90 -673 34 -912
70 -136 146 -197 246 -199 263 -6 433 550 311 1016 -42 160 -136 306 -224 346
-52 24 -130 24 -176 -1z"/>
<path d="M2821 1694 c-144 -39 -273 -146 -336 -281 -74 -158 -90 -188 -127
-234 -20 -26 -76 -75 -125 -110 -48 -35 -110 -81 -136 -104 -101 -85 -188
-226 -202 -324 -13 -94 27 -221 97 -305 66 -81 204 -127 378 -127 136 0 210
12 345 58 106 36 115 37 245 37 126 0 141 -2 230 -33 132 -45 224 -61 354 -61
80 0 136 6 191 20 136 35 195 83 258 210 29 58 32 73 31 150 -1 181 -89 302
-367 503 -80 58 -143 142 -191 256 -19 45 -49 104 -67 132 -62 97 -183 183
-302 215 -67 18 -207 17 -276 -2z"/>
</g>
</svg>
